<svg width="382" height="378" viewBox="0 0 382 378" fill="none" xmlns="http://www.w3.org/2000/svg">
<g opacity="0.3">
<path d="M290.708 222.17C288.343 218.022 283.909 215.27 279.142 215.014C275.575 214.823 272.014 214.2 268.525 213.144C261.202 210.927 254.54 206.829 249.259 201.29C241.393 193.042 237.24 182.232 237.28 171.327C237.298 166.505 234.802 161.851 230.743 159.248C221.33 153.212 214.4 143.775 211.737 132.805C209.087 121.891 210.931 110.603 216.446 101.265C218.935 97.0517 219.097 91.6808 216.842 87.3375C214.457 82.7435 212.925 77.775 212.321 72.6656C211.755 67.8793 208.791 63.4176 204.07 62.443C181.066 57.6932 158 58.948 136.721 65.2297C130.868 66.9575 128.637 73.8233 129.451 79.8716C130.009 84.0275 129.697 88.3246 128.431 92.5064C125.321 102.778 117.108 110.155 107.31 112.819C101.846 114.305 95.8923 114.331 90.0502 112.562C85.9546 111.322 82.2104 109.284 79.0056 106.605C78.9769 106.581 78.9365 106.577 78.9036 106.594C78.8923 106.6 78.8824 106.609 78.8747 106.619C76.3588 109.953 73.9944 113.423 71.7834 117.014C65.8851 126.596 61.1109 137.064 57.706 148.309C35.9638 220.116 77.8585 296.576 151.096 318.751C180.065 327.523 209.659 326.496 236.202 317.618C236.786 317.352 237.506 317.105 238.326 316.872C244.842 314.576 251.169 311.813 257.246 308.599C262.47 305.837 263.438 298.99 261.649 293.359C259.854 287.711 259.703 281.558 261.487 275.666C263.401 269.345 267.251 264.123 272.21 260.415C279.507 254.959 289.211 252.805 298.72 255.3C299.094 255.392 299.475 255.492 299.868 255.611C300.357 255.759 300.886 255.548 301.112 255.09C302.45 252.382 303.702 249.616 304.864 246.791C306.711 242.301 304.611 237.32 300.866 234.229C296.765 230.845 293.324 226.758 290.708 222.17ZM110.496 259.606C101.27 256.813 94.279 250.152 90.8175 241.999C87.9705 235.612 87.3014 228.268 89.4635 221.127C94.3081 205.127 111.525 196.13 127.844 201.071C137.07 203.865 144.062 210.526 147.522 218.678C150.369 225.065 151.038 232.41 148.876 239.551C144.032 255.55 126.815 264.547 110.496 259.606ZM161.681 161.082C152.455 158.288 145.464 151.627 142.003 143.475C139.156 137.088 138.487 129.743 140.649 122.602C145.494 106.603 162.711 97.6059 179.03 102.547C188.255 105.34 195.246 112.001 198.708 120.154C201.555 126.541 202.224 133.886 200.062 141.026C195.217 157.025 178.001 166.023 161.681 161.082ZM195.388 270.199C183.54 266.612 174.558 258.064 170.102 247.598C166.482 239.412 165.642 230.01 168.41 220.869C174.639 200.297 196.776 188.73 217.757 195.083C229.604 198.67 238.586 207.218 243.042 217.684C246.663 225.87 247.502 235.272 244.734 244.414C238.505 264.985 216.368 276.552 195.388 270.199Z" fill="#CC9508"/>
<path d="M165.642 146.762C174.19 149.35 183.209 144.637 185.746 136.257C188.284 127.876 183.395 118.952 174.847 116.364C166.299 113.775 157.28 118.488 154.742 126.869C152.205 135.25 157.095 144.174 165.642 146.762Z" fill="#1C7EA8"/>
<path d="M114.457 245.287C123.005 247.875 132.024 243.163 134.561 234.782C137.099 226.401 132.209 217.477 123.661 214.889C115.114 212.301 106.095 217.013 103.557 225.394C101.02 233.775 105.909 242.699 114.457 245.287Z" fill="#1CA876"/>
<path d="M114.339 88.238C114.685 87.0955 114.895 85.9367 114.975 84.7805C115.358 79.2276 108.661 77.6315 104.251 81.0284C100.371 84.0183 96.6477 87.2188 93.1027 90.6195C90.4172 93.1957 90.6734 97.6655 94.235 98.7439C102.783 101.331 111.802 96.6189 114.339 88.238Z" fill="#CC9508"/>
<path d="M275.58 279.933C275.009 281.817 274.817 283.752 274.968 285.646C275.401 291.083 282.064 291.906 286.07 288.206C289.987 284.59 293.697 280.735 297.176 276.656C299.279 274.189 298.786 270.367 295.684 269.427C287.137 266.839 278.118 271.552 275.58 279.933Z" fill="#CC9508"/>
<path d="M199.348 255.88C212.558 259.88 226.496 252.596 230.418 239.644C234.34 226.692 226.783 212.901 213.573 208.901C200.362 204.901 186.424 212.184 182.503 225.136C178.581 238.088 186.137 251.88 199.348 255.88Z" fill="#CC0808"/>
<path d="M198.708 120.153C201.369 126.421 201.944 133.569 199.839 140.524C194.994 156.523 177.777 165.52 161.458 160.579C152.423 157.843 145.535 151.397 142.003 143.474C145.464 151.626 152.456 158.288 161.682 161.081C178 166.022 195.218 157.025 200.062 141.026C202.224 133.885 201.556 126.54 198.708 120.153Z" fill="#CC9508"/>
<path d="M148.654 239.049C143.809 255.049 126.592 264.045 110.273 259.104C101.238 256.369 94.3501 249.922 90.8182 241.999C94.2797 250.152 101.271 256.813 110.496 259.606C126.815 264.547 144.032 255.551 148.877 239.551C151.039 232.409 150.37 225.065 147.523 218.679C150.183 224.946 150.759 232.095 148.654 239.049Z" fill="#CC9508"/>
<path d="M244.511 243.912C238.282 264.483 216.145 276.05 195.165 269.697C183.508 266.168 174.629 257.834 170.102 247.599C174.557 258.064 183.539 266.612 195.388 270.2C216.368 276.553 238.505 264.986 244.734 244.415C247.502 235.273 246.663 225.871 243.042 217.685C246.477 225.751 247.222 234.957 244.511 243.912Z" fill="#CC9508"/>
<path d="M161.458 160.579C177.777 165.52 194.994 156.523 199.839 140.524C201.945 133.569 201.369 126.421 198.708 120.153C195.248 112.001 188.257 105.34 179.03 102.546C162.711 97.6053 145.494 106.602 140.65 122.602C138.487 129.743 139.157 137.087 142.004 143.474C145.536 151.397 152.424 157.843 161.458 160.579ZM174.846 116.364C183.394 118.952 188.284 127.876 185.746 136.257C183.209 144.637 174.19 149.35 165.642 146.762C157.094 144.174 152.205 135.25 154.742 126.869C157.28 118.488 166.299 113.776 174.846 116.364Z" fill="#323232"/>
<path d="M110.273 259.104C126.592 264.045 143.809 255.049 148.654 239.049C150.76 232.095 150.184 224.946 147.523 218.679C144.063 210.526 137.071 203.865 127.845 201.072C111.526 196.131 94.3091 205.127 89.4645 221.127C87.3022 228.269 87.9715 235.613 90.8185 241.999C94.3504 249.922 101.238 256.368 110.273 259.104ZM123.661 214.889C132.209 217.477 137.099 226.401 134.561 234.782C132.024 243.163 123.005 247.875 114.457 245.287C105.909 242.699 101.02 233.775 103.557 225.394C106.095 217.013 115.113 212.301 123.661 214.889Z" fill="#323232"/>
<path d="M337.823 231.693L337.988 231.116C339.047 227.455 337.02 223.584 333.361 222.276C323.037 218.583 315.643 209.641 314.065 198.941C313.751 196.814 312.494 194.923 310.636 193.781C308.777 192.638 306.506 192.361 304.439 193.026C298.724 194.863 292.386 194.909 286.595 193.156C281.688 191.67 277.219 188.918 273.67 185.197C265.812 176.958 263.472 164.911 267.708 154.507C268.516 152.522 268.382 150.277 267.342 148.38C266.302 146.481 264.456 145.127 262.326 144.682C261.461 144.502 260.592 144.281 259.745 144.024C249.688 140.979 241.926 132.85 239.489 122.81C236.829 111.854 240.913 100.337 249.894 93.4662C251.607 92.1559 252.631 90.1584 252.689 88.0136C252.748 85.869 251.835 83.799 250.197 82.3641C241.96 75.1474 238.445 64.1839 241.023 53.7517C241.936 50.0544 239.765 46.2632 236.062 45.0907L235.49 44.9077C235.042 44.7639 234.593 44.6205 234.142 44.4837C153.133 19.9552 67.6633 64.6173 43.6141 144.042C19.565 223.468 65.9042 308.04 146.913 332.569C227.921 357.097 313.391 312.435 337.44 233.01C337.573 232.571 337.698 232.132 337.823 231.693ZM104.251 81.0286C108.661 77.6317 115.358 79.2277 114.975 84.7806C114.895 85.9368 114.685 87.0956 114.339 88.2382C111.802 96.619 102.783 101.332 94.2352 98.7433C90.6736 97.6649 90.4175 93.1951 93.103 90.6191C96.6479 87.2186 100.371 84.0183 104.251 81.0286ZM286.07 288.208C282.064 291.908 275.401 291.085 274.968 285.648C274.817 283.754 275.01 281.818 275.58 279.934C278.118 271.553 287.136 266.84 295.684 269.428C298.787 270.368 299.279 274.19 297.176 276.657C293.697 280.736 289.987 284.591 286.07 288.208ZM313.884 251.935C311.498 256.501 305.6 257.52 300.715 255.886C300.433 255.792 300.152 255.696 299.868 255.61C299.486 255.495 299.103 255.401 298.719 255.3C289.21 252.804 279.507 254.958 272.21 260.415C267.251 264.122 263.4 269.344 261.486 275.665C259.702 281.558 259.854 287.711 261.649 293.359C263.438 298.99 262.47 305.836 257.246 308.598C251.168 311.812 244.841 314.575 238.326 316.871C237.618 317.121 236.914 317.379 236.202 317.617C209.658 326.495 180.064 327.522 151.095 318.75C77.8589 296.575 35.9639 220.116 57.7062 148.309C61.1109 137.065 65.8846 126.596 71.7847 117.013C73.999 113.417 76.3673 109.942 78.8877 106.602C78.8959 106.592 78.9037 106.581 78.9116 106.57C78.9227 106.555 78.9452 106.551 78.9594 106.564C82.1747 109.262 85.935 111.314 90.0515 112.561C95.8936 114.33 101.848 114.303 107.311 112.818C117.109 110.154 125.322 102.777 128.432 92.5053C130.862 84.4795 129.78 76.0291 125.766 68.9671C125.4 68.3241 125.628 67.4928 126.289 67.1597C153.58 53.3915 185.618 48.5332 217.53 55.1377C222.25 56.1146 225.217 60.576 225.775 65.3634C226.381 70.5548 227.938 75.6029 230.368 80.2665C232.629 84.6064 232.467 89.9775 229.971 94.1873C224.388 103.607 222.518 115.003 225.193 126.022C227.881 137.097 234.885 146.621 244.397 152.701C248.46 155.298 250.956 159.953 250.931 164.775C250.873 175.784 255.058 186.702 263 195.029C268.321 200.609 275.034 204.739 282.411 206.972C285.948 208.043 289.557 208.672 293.172 208.861C297.94 209.109 302.373 211.862 304.732 216.013C307.382 220.677 310.879 224.828 315.048 228.26C318.798 231.344 320.897 236.325 319.054 240.817C317.491 244.629 315.764 248.337 313.884 251.935Z" fill="#323232"/>
<path d="M195.164 269.697C216.145 276.05 238.282 264.483 244.511 243.912C247.222 234.958 246.477 225.752 243.042 217.685C238.587 207.22 229.605 198.672 217.757 195.084C196.776 188.731 174.639 200.298 168.41 220.869C165.642 230.011 166.482 239.413 170.102 247.599C174.629 257.834 183.508 266.168 195.164 269.697ZM213.573 208.901C226.783 212.901 234.34 226.692 230.418 239.645C226.497 252.596 212.559 259.88 199.348 255.88C186.138 251.88 178.581 238.088 182.503 225.137C186.425 212.184 200.362 204.901 213.573 208.901Z" fill="#323232"/>
</g>
</svg>
