<svg width="266" height="277" viewBox="0 0 266 277" fill="none" xmlns="http://www.w3.org/2000/svg">
<path d="M21.2417 0C9.52788 0 0.0367126 9.11792 0.0367126 20.371V257.783H194.005L207.281 238.566V0H21.2417Z" fill="#15C887"/>
<path d="M38.6021 0H21.2417C9.52787 0 0.0367126 9.11792 0.0367126 20.371V257.783H38.6021V0Z" fill="#1CA876"/>
<path d="M19.9803 238.624C7.6658 238.624 -1.94551 249.242 0.337178 261.361C2.01916 270.652 11.1499 277 21.0015 277C81.0722 277 147.15 277 207.221 277C203.016 264.535 203.016 251.089 207.221 238.624C146.789 238.624 80.4114 238.624 19.9803 238.624Z" fill="#D2F0EA"/>
<path d="M168.054 138.673L157.542 148.772L238.698 237.354C244.524 243.76 254.736 244.049 260.984 238.047C267.231 232.045 266.871 222.235 260.263 216.637L168.054 138.673Z" fill="#FBD872"/>
<path d="M159.053 134.079L152.724 140.159L159.605 146.77L165.934 140.69L159.053 134.079Z" fill="#F6AF62"/>
<path d="M153.292 87.1491L103.935 134.565L133.499 162.966L182.856 115.55L153.292 87.1491Z" fill="#FBD872"/>
<path d="M95.6092 134.634C93.2665 136.884 93.2665 140.462 95.6092 142.713L125.044 170.99C127.387 173.24 131.111 173.24 133.454 170.99C135.797 168.739 135.797 165.161 133.454 162.911L104.019 134.634C101.676 132.441 97.952 132.441 95.6092 134.634Z" fill="#F6AF62"/>
<path d="M153.397 79.1758C151.054 81.4264 151.054 85.0043 153.397 87.2549L182.832 115.532C185.175 117.783 188.899 117.783 191.242 115.532C193.584 113.281 193.584 109.703 191.242 107.453L161.807 79.1758C159.464 76.9251 155.68 76.9251 153.397 79.1758Z" fill="#F6AF62"/>
<path d="M147.33 191.188H74.7047C68.0969 191.188 62.6905 196.381 62.6905 202.729V211.559H159.344V202.729C159.344 196.381 153.998 191.188 147.33 191.188Z" fill="white"/>
</svg>
