<svg width="331" height="325" viewBox="0 0 331 325" fill="none" xmlns="http://www.w3.org/2000/svg">
<g filter="url(#filter0_d_121_3993)">
<g clip-path="url(#clip0_121_3993)">
<path d="M262.048 46.2339H68.9568V111.865H262.048V46.2339Z" fill="#BBBBBB"/>
<path d="M282.733 290.59C282.733 305.179 270.37 317 255.137 317H75.8531C60.6201 317 48.2661 305.178 48.2661 290.59V99.0625C48.2661 84.4738 60.6195 72.6522 75.8531 72.6522H255.137C270.37 72.6522 282.733 84.4738 282.733 99.0625V290.59Z" fill="#E4E4E4"/>
<path d="M165.502 19.8125C89.601 19.8125 68.9536 46.2327 68.9536 46.2327V59.4375H262.046V46.2327C262.046 46.2327 241.398 19.8125 165.502 19.8125Z" fill="#3CB4E7"/>
<path d="M179.296 13.2147C179.296 20.5091 173.118 26.4202 165.502 26.4202C157.876 26.4202 151.704 20.5091 151.704 13.2147C151.704 5.92041 157.876 0 165.502 0C173.118 0 179.296 5.92041 179.296 13.2147Z" fill="#F6AF62"/>
<path d="M142.986 292.728C145.815 288.791 146.077 285.395 146.562 278.613C147.057 271.822 145.138 265.36 142.107 259.526C140.238 255.937 136.289 247.125 130.41 244.096C124.521 241.068 117.359 236.899 106.49 237.053C95.631 237.208 77.9529 245.112 71.4685 249.34C64.9834 253.567 62.4478 257.988 61.9222 265.099C61.4069 272.2 61.2149 271.958 65.0235 283.393C68.8418 294.817 74.7314 301.454 79.2259 303.834C83.7314 306.214 84.4083 306.359 91.631 307.007C98.8531 307.656 107.308 308.584 112.581 308.207C117.854 307.83 124.733 307.946 129.319 304.647C133.905 301.338 140.218 296.578 142.986 292.728Z" fill="#F6AF62"/>
<path d="M99.7621 259.42C97.0759 262.003 97.0759 266.182 99.7621 268.766C102.459 271.339 106.823 271.339 109.52 268.766C112.207 266.182 112.207 262.003 109.52 259.42C106.823 256.847 102.459 256.847 99.7621 259.42Z" fill="#7F4545"/>
<path d="M104.833 281.129C102.136 283.702 102.136 287.891 104.833 290.465C107.52 293.047 111.894 293.047 114.581 290.465C117.279 287.891 117.279 283.702 114.581 281.129C111.894 278.546 107.52 278.546 104.833 281.129Z" fill="#7F4545"/>
<path d="M78.58 264.673C75.8835 267.256 75.8835 271.435 78.58 274.008C81.2773 276.591 85.6412 276.591 88.3384 274.008C91.0253 271.435 91.0253 267.256 88.3384 264.673C85.6412 262.09 81.2773 262.09 78.58 264.673Z" fill="#7F4545"/>
<path d="M141.41 303.689C145.612 306.717 149.451 307.433 157.108 308.855C164.774 310.267 172.31 309.542 179.235 307.761C183.497 306.668 193.922 304.53 197.922 299.867C201.942 295.204 207.377 289.603 208.286 280.151C209.175 270.71 201.921 254.234 197.74 247.995C193.578 241.755 188.79 238.91 180.77 237.421C172.755 235.94 173.038 235.805 159.674 237.45C146.309 239.085 138.188 243.225 135.046 246.785C131.895 250.346 131.663 250.906 130.218 257.078C128.783 263.241 126.884 270.448 126.793 275.072C126.712 279.697 125.904 285.646 129.207 290.106C132.511 294.566 137.299 300.728 141.41 303.689Z" fill="#F6AF62"/>
<path d="M175.664 281.651C173.31 278.787 168.977 278.275 165.977 280.529C162.977 282.773 162.452 286.924 164.806 289.797C167.149 292.67 171.483 293.173 174.483 290.929C177.477 288.675 178.003 284.524 175.664 281.651Z" fill="#7F4545"/>
<path d="M160.734 268.601C158.391 265.727 154.057 265.225 151.057 267.469C148.057 269.723 147.532 273.873 149.875 276.746C152.229 279.619 156.563 280.122 159.562 277.868C162.552 275.624 163.088 271.474 160.734 268.601Z" fill="#7F4545"/>
<path d="M178.528 258.51C176.184 255.637 171.856 255.134 168.855 257.379C165.855 259.633 165.33 263.783 167.674 266.656C170.027 269.53 174.361 270.032 177.356 267.778C180.366 265.534 180.892 261.384 178.528 258.51Z" fill="#7F4545"/>
<path d="M186.892 286.256C188.73 290.629 191.639 292.892 197.477 297.4C203.336 301.909 210.367 304.559 217.519 306.059C221.923 306.988 232.327 309.696 238.691 307.51C245.034 305.333 253.217 302.973 259.763 295.417C266.308 287.862 270.006 270.865 270.147 263.812C270.309 256.759 267.864 252.3 261.743 247.579C255.621 242.848 255.965 242.868 243.257 238.466C230.57 234.054 220.934 234.015 216.004 235.65C211.095 237.286 210.529 237.653 205.519 242.219C200.488 246.785 194.447 252.019 191.558 255.869C188.649 259.72 184.326 264.373 184.487 269.558C184.669 274.734 185.094 281.99 186.892 286.256Z" fill="#F6AF62"/>
<path d="M245.317 274.86C244.853 271.242 241.398 268.669 237.62 269.124C233.842 269.569 231.156 272.867 231.621 276.485C232.105 280.104 235.54 282.677 239.317 282.232C243.095 281.777 245.782 278.478 245.317 274.86Z" fill="#7F4545"/>
<path d="M223.438 276.291C222.973 272.673 219.539 270.11 215.741 270.555C211.963 271.009 209.296 274.298 209.761 277.926C210.226 281.544 213.68 284.108 217.458 283.663C221.236 283.219 223.923 279.91 223.438 276.291Z" fill="#7F4545"/>
<path d="M242.509 257.011C242.024 253.392 238.59 250.82 234.812 251.274C231.034 251.72 228.347 255.018 228.812 258.645C229.277 262.264 232.731 264.827 236.509 264.383C240.287 263.928 242.974 260.629 242.509 257.011Z" fill="#7F4545"/>
<path d="M107.379 271.194C111.774 273.419 115.633 273.525 123.339 273.718C131.057 273.911 138.492 272.103 145.259 269.404C149.411 267.75 159.604 264.199 163.26 259.226C166.916 254.254 171.937 248.179 172.149 239.172C172.372 230.175 164.007 215.77 159.422 210.526C154.835 205.293 149.896 203.329 141.815 203.116C133.744 202.913 134.017 202.748 120.854 206.27C107.702 209.792 99.9244 214.879 97.0461 218.692C94.1673 222.503 93.9752 223.064 92.9751 229.072C91.9853 235.08 90.6115 242.123 90.8539 246.486C91.086 250.839 90.7026 256.546 94.3088 260.242C97.9041 263.948 103.096 269.017 107.379 271.194Z" fill="#F4BE8E"/>
<path d="M152.876 240.827C150.189 238.234 145.825 238.224 143.117 240.788C140.42 243.361 140.4 247.541 143.077 250.134C145.764 252.716 150.128 252.736 152.836 250.172C155.532 247.598 155.552 243.419 152.876 240.827Z" fill="#7F4545"/>
<path d="M127.683 239.482C125.006 236.889 120.632 236.879 117.935 239.443C115.228 242.017 115.208 246.196 117.895 248.789C120.572 251.372 124.945 251.391 127.643 248.818C130.35 246.254 130.37 242.074 127.683 239.482Z" fill="#7F4545"/>
<path d="M129.723 217.657C127.046 215.064 122.682 215.045 119.975 217.619C117.268 220.183 117.258 224.371 119.935 226.954C122.622 229.547 126.986 229.567 129.683 226.993C132.39 224.429 132.41 220.24 129.723 217.657Z" fill="#7F4545"/>
<path d="M240.287 236.628C240.145 231.975 239.924 231.395 236.63 225.677C233.317 219.969 229.64 213.168 226.408 209.463C223.195 205.767 219.579 200.592 213.903 199.005C208.226 197.418 200.204 195.358 194.992 195.426C189.659 195.494 186.245 197.167 179.417 200.534C172.614 203.901 167.411 208.892 163.431 214.348C160.976 217.705 154.612 225.483 154.875 231.52C155.148 237.546 155.017 245.16 161.057 253.141C167.088 261.123 184.306 269.887 191.901 272.373C199.498 274.859 205.155 274.308 212.286 270.787C219.418 267.265 219.297 267.537 228.267 258.423C237.216 249.301 240.428 241.281 240.287 236.628Z" fill="#F4BE8E"/>
<path d="M190.023 249.243C193.74 250.017 197.417 247.744 198.205 244.184C199.013 240.614 196.649 237.102 192.932 236.338C189.195 235.564 185.538 237.837 184.73 241.397C183.921 244.967 186.306 248.479 190.023 249.243Z" fill="#7F4545"/>
<path d="M196.912 228.028C200.649 228.792 204.306 226.528 205.115 222.958C205.923 219.398 203.538 215.886 199.821 215.112C196.104 214.348 192.426 216.612 191.618 220.182C190.831 223.742 193.194 227.254 196.912 228.028Z" fill="#7F4545"/>
<path d="M213.094 249.243C216.812 250.017 220.489 247.744 221.297 244.184C222.085 240.614 219.721 237.102 216.004 236.338C212.286 235.564 208.609 237.837 207.801 241.397C207.013 244.967 209.377 248.479 213.094 249.243Z" fill="#7F4545"/>
<path d="M207.013 202.856C206.852 198.88 206.65 198.386 203.336 193.511C200.043 188.635 196.366 182.84 193.134 179.677C189.922 176.513 186.305 172.102 180.629 170.748C174.947 169.393 166.936 167.633 161.713 167.69C156.37 167.748 152.956 169.18 146.148 172.053C139.34 174.926 134.137 179.183 130.147 183.846C127.703 186.71 121.328 193.346 121.601 198.492C121.874 203.639 121.743 210.14 127.773 216.951C133.814 223.751 151.036 231.24 158.633 233.358C166.229 235.476 171.875 235.012 179.012 232.004C186.143 228.995 186.022 229.227 194.972 221.449C203.942 213.671 207.155 206.822 207.013 202.856Z" fill="#FFD2A6"/>
<path d="M149.057 210.315C152.785 211.088 156.452 208.815 157.249 205.255C158.057 201.685 155.683 198.173 151.966 197.399C148.238 196.635 144.571 198.899 143.774 202.469C142.966 206.039 145.339 209.55 149.057 210.315Z" fill="#7F4545"/>
<path d="M169.28 195.368C173.008 196.132 176.67 193.869 177.478 190.299C178.286 186.729 175.902 183.217 172.189 182.453C168.462 181.689 164.795 183.952 163.997 187.523C163.189 191.083 165.563 194.595 169.28 195.368Z" fill="#7F4545"/>
<path d="M176.649 216.921C180.366 217.686 184.043 215.422 184.83 211.852C185.639 208.292 183.275 204.78 179.558 204.006C175.826 203.242 172.159 205.506 171.351 209.076C170.552 212.636 172.917 216.157 176.649 216.921Z" fill="#7F4545"/>
<path d="M266.914 48.1675C265.56 46.8809 263.803 46.2327 262.046 46.2327H67.6806V46.3491C66.3676 46.5813 65.1049 47.1905 64.0744 48.1682C61.3875 50.7513 61.3875 54.93 64.0744 57.5032C65.1049 58.4902 66.3676 59.0895 67.6806 59.3316V59.4381H262.046C263.803 59.4381 265.561 58.7998 266.914 57.5032C269.601 54.9294 269.601 50.7507 266.914 48.1675Z" fill="#1C7EA8"/>
<path d="M73.8328 70.718C76.53 68.1348 76.53 63.9555 73.8328 61.3724C72.4893 60.0858 70.7218 59.4375 68.9536 59.4375V72.6522C70.7212 72.6522 72.4893 72.004 73.8328 70.718Z" fill="#BBBBBB"/>
<path d="M257.156 61.3724C254.469 63.9555 254.469 68.1348 257.156 70.718C258.51 72.0046 260.267 72.6529 262.045 72.6529V59.4375C260.268 59.4375 258.51 60.0858 257.156 61.3724Z" fill="#BBBBBB"/>
</g>
</g>
<defs>
<filter id="filter0_d_121_3993" x="-4" y="0" width="339" height="325" filterUnits="userSpaceOnUse" color-interpolation-filters="sRGB">
<feFlood flood-opacity="0" result="BackgroundImageFix"/>
<feColorMatrix in="SourceAlpha" type="matrix" values="0 0 0 0 0 0 0 0 0 0 0 0 0 0 0 0 0 0 127 0" result="hardAlpha"/>
<feOffset dy="4"/>
<feGaussianBlur stdDeviation="2"/>
<feComposite in2="hardAlpha" operator="out"/>
<feColorMatrix type="matrix" values="0 0 0 0 0 0 0 0 0 0 0 0 0 0 0 0 0 0 0.25 0"/>
<feBlend mode="normal" in2="BackgroundImageFix" result="effect1_dropShadow_121_3993"/>
<feBlend mode="normal" in="SourceGraphic" in2="effect1_dropShadow_121_3993" result="shape"/>
</filter>
<clipPath id="clip0_121_3993">
<rect width="331" height="317" rx="10" fill="white"/>
</clipPath>
</defs>
</svg>
