<svg width="42" height="40" viewBox="0 0 42 40" fill="none" xmlns="http://www.w3.org/2000/svg">
<path d="M35.7827 21.064C34.7422 20.3865 33.4251 20.032 32.1862 20.1141C32.0527 20.1229 31.9184 20.1274 31.7835 20.1274C30.7626 20.1275 29.7533 19.8627 28.8646 19.3617V19.3617C26.0843 17.7944 23.0485 14.8435 21.424 12.0962V12.0962C20.8475 11.1213 20.5925 10.0197 20.6524 8.93384C20.7213 7.68436 20.354 6.34327 19.6563 5.3044V5.3044C18.9717 4.28483 17.9374 3.38393 16.7219 3.55997C14.5675 3.872 12.534 4.5507 10.6899 5.52853C9.18405 6.32701 9.22615 8.47451 9.22615 10.179V10.179C9.22615 11.6052 8.4626 12.8597 7.31422 13.5759C6.67387 13.9752 5.91445 14.2078 5.09991 14.2078C4.52888 14.2078 3.97186 14.0928 3.45896 13.8755C3.45438 13.8736 3.44907 13.8746 3.44556 13.8781V13.8781C3.44434 13.8793 3.44341 13.8808 3.44281 13.8824C3.25044 14.4034 3.08264 14.9357 2.93913 15.4776C2.55638 16.9235 2.35144 18.4387 2.35144 20.0001C2.35144 29.9703 10.6588 38.0817 20.8699 38.0817C24.9089 38.0817 28.6488 36.8114 31.6956 34.66C31.7598 34.6037 31.8423 34.5445 31.9379 34.4833C32.0362 34.4116 32.1337 34.3389 32.2304 34.2654C33.8731 33.0164 33.3025 30.4141 33.3025 28.3505V28.3505C33.3025 27.4728 33.5923 26.6604 34.0822 25.9979C34.8032 25.0229 35.9592 24.3752 37.2701 24.3264C37.3215 24.3236 37.374 24.3217 37.4288 24.3217V24.3217C37.497 24.3217 37.5564 24.2743 37.5676 24.2069C37.6289 23.8399 37.6789 23.4692 37.7171 23.0952C37.7877 22.4027 37.2909 21.8075 36.6521 21.5309C36.3487 21.3994 36.0579 21.2432 35.7827 21.064ZM13.3975 32.1227C12.1112 32.1227 10.9607 31.5448 10.2034 30.6411C9.59279 29.9385 9.2233 29.0301 9.2233 28.0386C9.2233 25.817 11.0743 24.0097 13.3495 24.0097C14.6358 24.0097 15.7864 24.5877 16.5436 25.4913C17.1542 26.1939 17.5237 27.1023 17.5237 28.0938C17.5237 30.3154 15.6728 32.1227 13.3975 32.1227ZM16.1246 17.6204C14.8383 17.6204 13.6879 17.0424 12.9305 16.1388C12.3199 15.4362 11.9504 14.5277 11.9504 13.5363C11.9504 11.3147 13.8015 9.50739 16.0767 9.50739C17.363 9.50739 18.5134 10.0853 19.2708 10.989C19.8814 11.6916 20.2509 12.6 20.2509 13.5915C20.2509 15.813 18.4 17.6204 16.1246 17.6204ZM24.6491 30.2007C22.9973 30.2007 21.5196 29.4595 20.5458 28.3C19.7668 27.3982 19.296 26.2347 19.296 24.9654C19.296 22.1091 21.676 19.7854 24.6012 19.7854C26.2531 19.7854 27.7308 20.5266 28.7045 21.6862C29.4835 22.588 29.9543 23.7515 29.9543 25.0208C29.9543 27.877 27.5744 30.2007 24.6491 30.2007Z" fill="#CC9508"/>
<path d="M16.0768 15.6465C17.2686 15.6465 18.2381 14.6998 18.2381 13.5361C18.2381 12.3725 17.2686 11.4258 16.0768 11.4258C14.885 11.4258 13.9154 12.3725 13.9154 13.5361C13.9154 14.6998 14.8851 15.6465 16.0768 15.6465Z" fill="#3CB4E7"/>
<path d="M13.3497 30.1489C14.5415 30.1489 15.5111 29.2023 15.5111 28.0386C15.5111 26.8749 14.5415 25.9282 13.3497 25.9282C12.1579 25.9282 11.1884 26.8749 11.1884 28.0386C11.1884 29.2023 12.1579 30.1489 13.3497 30.1489Z" fill="#1CA876"/>
<path d="M7.26142 10.1788V10.1788C7.26142 9.17929 5.98803 9.20691 5.42654 10.0338C5.14828 10.4435 4.88666 10.865 4.6426 11.2971C4.39871 11.729 4.60408 12.2892 5.10006 12.2892V12.2892C6.29185 12.2891 7.26142 11.3424 7.26142 10.1788Z" fill="#CC9508"/>
<path d="M35.2674 28.3504V28.3504C35.2674 29.5036 36.7602 29.3466 37.303 28.3292C37.5164 27.9294 37.7148 27.5209 37.8977 27.1043C38.0715 26.7087 37.8609 26.2401 37.4288 26.2401V26.2401C36.2371 26.2401 35.2674 27.1867 35.2674 28.3504Z" fill="#CC9508"/>
<path d="M24.6012 28.227C26.4431 28.227 27.9415 26.7638 27.9415 24.9655C27.9415 23.1671 26.4431 21.704 24.6012 21.704C22.7593 21.704 21.2609 23.1671 21.2609 24.9655C21.2609 26.7638 22.7593 28.227 24.6012 28.227Z" fill="#CC0808"/>
<path d="M19.2708 10.9888C19.853 11.6835 20.2029 12.5705 20.2029 13.5361C20.2029 15.7577 18.3519 17.565 16.0767 17.565C14.817 17.565 13.688 17.0104 12.9305 16.1387C13.6878 17.0423 14.8383 17.6203 16.1246 17.6203C18.3999 17.6203 20.2509 15.8129 20.2509 13.5914C20.2509 12.5999 19.8815 11.6915 19.2708 10.9888Z" fill="#CC9508"/>
<path d="M17.4758 28.0386C17.4758 30.2601 15.6248 32.0675 13.3496 32.0675C12.0899 32.0675 10.9609 31.5128 10.2034 30.6411C10.9608 31.5448 12.1112 32.1227 13.3975 32.1227C15.6728 32.1227 17.5238 30.3154 17.5238 28.0938C17.5238 27.1022 17.1543 26.1939 16.5437 25.4913C17.1258 26.186 17.4758 27.073 17.4758 28.0386Z" fill="#CC9508"/>
<path d="M29.9064 24.9655C29.9064 27.8218 27.5265 30.1455 24.6012 30.1455C22.976 30.1455 21.5198 29.4275 20.5458 28.3001C21.5195 29.4595 22.9972 30.2008 24.6492 30.2008C27.5744 30.2008 29.9543 27.8771 29.9543 25.0208C29.9543 23.7516 29.4836 22.5881 28.7046 21.6863C29.4552 22.58 29.9064 23.7221 29.9064 24.9655Z" fill="#CC9508"/>
<path d="M16.0767 17.565C18.352 17.565 20.203 15.7577 20.203 13.5361C20.203 12.5705 19.853 11.6835 19.2708 10.9888C18.5136 10.0852 17.3631 9.50726 16.0767 9.50726C13.8015 9.50726 11.9505 11.3146 11.9505 13.5361C11.9505 14.5277 12.32 15.436 12.9306 16.1387C13.6881 17.0104 14.8171 17.565 16.0767 17.565ZM16.0767 11.4258C17.2685 11.4258 18.2381 12.3725 18.2381 13.5361C18.2381 14.6998 17.2685 15.6465 16.0767 15.6465C14.8849 15.6465 13.9154 14.6998 13.9154 13.5361C13.9154 12.3725 14.885 11.4258 16.0767 11.4258Z" fill="#323232"/>
<path d="M13.3496 32.0675C15.6249 32.0675 17.4759 30.2601 17.4759 28.0386C17.4759 27.073 17.1259 26.186 16.5437 25.4913C15.7865 24.5877 14.6359 24.0097 13.3496 24.0097C11.0744 24.0097 9.22339 25.817 9.22339 28.0386C9.22339 29.0302 9.59288 29.9385 10.2035 30.6411C10.9609 31.5128 12.0898 32.0675 13.3496 32.0675ZM13.3496 25.9282C14.5414 25.9282 15.511 26.8749 15.511 28.0386C15.511 29.2023 14.5414 30.1489 13.3496 30.1489C12.1578 30.1489 11.1883 29.2023 11.1883 28.0386C11.1883 26.8749 12.1578 25.9282 13.3496 25.9282Z" fill="#323232"/>
<path d="M41.3513 19.8178L41.35 19.7381C41.3437 19.2317 40.9352 18.8174 40.4173 18.7919C38.9559 18.7199 37.6657 17.8673 37.0504 16.5671C36.9281 16.3087 36.6945 16.1166 36.4129 16.0429C36.1313 15.9691 35.8307 16.0214 35.5923 16.1855C34.9335 16.6392 34.1258 16.8891 33.3184 16.8892C32.6342 16.8892 31.957 16.7114 31.3599 16.3748C30.0377 15.6294 29.273 14.1874 29.4117 12.7009C29.4381 12.4174 29.3342 12.137 29.128 11.9357C28.9217 11.7343 28.6335 11.6332 28.3443 11.6586C28.2269 11.6691 28.1074 11.6743 27.9892 11.6743C26.5871 11.6743 25.2814 10.9394 24.5818 9.75621C23.8185 8.46524 23.8947 6.84304 24.776 5.62335C24.9441 5.39073 24.9977 5.0972 24.9222 4.82218C24.8467 4.54716 24.65 4.31905 24.3854 4.19962C23.0543 3.59894 22.1814 2.33991 22.1072 0.913787C22.0808 0.408355 21.6569 0.00978441 21.1387 0.00326147L21.0585 0.00201444C20.9958 0.000959256 20.933 0 20.87 0C9.5754 0 0.386658 8.97202 0.386658 20.0001C0.386658 31.0282 9.5754 40.0002 20.87 40.0002C32.1646 40.0002 41.3533 31.0282 41.3533 20.0001C41.3533 19.9392 41.3523 19.8786 41.3513 19.8178ZM5.42648 10.0338C5.98798 9.20689 7.26136 9.17927 7.26136 10.1788V10.1788C7.26136 11.3424 6.2918 12.2891 5.1 12.2891V12.2891C4.60403 12.2891 4.39867 11.7289 4.64257 11.297C4.88662 10.8649 5.14823 10.4435 5.42648 10.0338ZM37.303 28.3294C36.7602 29.3468 35.2674 29.5037 35.2674 28.3505V28.3505C35.2674 27.1868 36.237 26.2402 37.4288 26.2402V26.2402C37.8609 26.2402 38.0715 26.7088 37.8978 27.1044C37.7148 27.521 37.5164 27.9295 37.303 28.3294ZM39.0775 23.3097C38.949 23.9854 38.2351 24.3437 37.5476 24.324V24.324C37.508 24.3229 37.4684 24.3215 37.4287 24.3215C37.3754 24.3215 37.3229 24.3243 37.27 24.3262C35.9591 24.3751 34.8031 25.0227 34.0821 25.9977C33.5922 26.6602 33.3023 27.4727 33.3023 28.3504V28.3504C33.3023 30.4141 33.873 33.0162 32.2303 34.2652C32.1336 34.3388 32.0361 34.4115 31.9378 34.4832C31.8571 34.5422 31.7772 34.6022 31.6955 34.6599C28.6487 36.8113 24.9088 38.0816 20.8698 38.0816C10.6588 38.0816 2.35143 29.9703 2.35143 20.0001C2.35143 18.4388 2.55627 16.9235 2.93923 15.4774C3.08296 14.9347 3.25105 14.4016 3.44381 13.8798C3.44444 13.8781 3.44502 13.8764 3.4456 13.8747C3.44642 13.8723 3.44916 13.871 3.45147 13.8721V13.8721C3.96646 14.0915 4.52606 14.2076 5.1 14.2076C5.91454 14.2076 6.67396 13.975 7.31432 13.5757C8.46259 12.8595 9.22624 11.605 9.22624 10.1788C9.22624 9.06439 8.76125 8.03127 7.9755 7.28766V7.28766C7.90403 7.22005 7.90103 7.10535 7.97239 7.03763C10.6923 4.45675 14.2187 2.68215 18.1425 2.11407C19.3673 1.93676 20.4094 2.84455 21.0993 3.87189V3.87189C21.8023 4.91861 22.1723 6.26986 22.1028 7.52879C22.0425 8.62293 22.2994 9.733 22.8803 10.7154V10.7154C24.517 13.4836 27.5759 16.457 30.3773 18.0362V18.0362C31.2727 18.541 32.2897 18.8077 33.3184 18.8076C33.4542 18.8076 33.5895 18.8031 33.724 18.7942C34.9725 18.7116 36.2996 19.0688 37.3481 19.7515C37.4724 19.8324 37.5998 19.9087 37.73 19.9801C38.6239 20.4703 39.3679 21.3339 39.2334 22.3445C39.1902 22.669 39.1382 22.9908 39.0775 23.3097Z" fill="#323232"/>
<path d="M24.6012 30.1455C27.5264 30.1455 29.9063 27.8218 29.9063 24.9655C29.9063 23.7222 29.4551 22.58 28.7045 21.6863C27.7308 20.5268 26.2532 19.7855 24.6012 19.7855C21.676 19.7855 19.296 22.1092 19.296 24.9655C19.296 26.2348 19.7668 27.3983 20.5458 28.3001C21.5198 29.4275 22.9759 30.1455 24.6012 30.1455ZM24.6012 21.704C26.4431 21.704 27.9415 23.1671 27.9415 24.9655C27.9415 26.7638 26.4431 28.227 24.6012 28.227C22.7593 28.227 21.2609 26.7638 21.2609 24.9655C21.2609 23.1671 22.7593 21.704 24.6012 21.704Z" fill="#323232"/>
</svg>
